<svg width="21" height="20" fill="none" xmlns="http://www.w3.org/2000/svg"><path d="M15.187.125c-1.812 0-3.552.844-4.687 2.177C9.364.97 7.625.125 5.812.125 2.604.125.083 2.645.083 5.855c0 3.937 3.542 7.145 8.906 12.02l1.51 1.365 1.511-1.375c5.365-4.865 8.907-8.073 8.907-12.01 0-3.21-2.521-5.73-5.73-5.73zm-4.583 16.198l-.104.104-.104-.104c-4.959-4.49-8.23-7.458-8.23-10.469 0-2.083 1.563-3.646 3.646-3.646 1.605 0 3.167 1.032 3.72 2.459h1.947c.542-1.427 2.104-2.459 3.708-2.459 2.084 0 3.646 1.563 3.646 3.646 0 3.01-3.27 5.98-8.229 10.469z" fill="#DCCA87"/></svg>