<svg width="53" height="41" fill="none" xmlns="http://www.w3.org/2000/svg"><path d="M38.438 19.286c-2.71 0-4.854-.902-6.435-2.707-1.693-1.692-2.54-3.947-2.54-6.767 0-3.045 1.016-5.47 3.048-7.274C34.431.846 37.083 0 40.47 0c3.95 0 7.055 1.523 9.313 4.568C51.928 7.613 53 11.955 53 17.594c0 5.075-1.129 9.756-3.387 14.041-2.257 4.399-5.644 8.797-10.16 13.196-.112.113-.282.169-.507.169-.339 0-.621-.17-.847-.508-.226-.338-.226-.62 0-.845 5.532-5.64 8.297-12.294 8.297-19.963 0-3.158-.564-5.47-1.693-6.936-1.016 1.692-3.105 2.538-6.265 2.538zm-29.464 0c-2.709 0-4.854-.903-6.434-2.707C.847 14.887 0 12.632 0 9.812c0-3.045 1.016-5.47 3.048-7.274C4.967.846 7.62 0 11.006 0c3.951 0 7.056 1.523 9.314 4.568 2.144 3.045 3.217 7.387 3.217 13.026 0 5.075-1.13 9.756-3.387 14.041-2.258 4.399-5.644 8.797-10.16 13.196-.112.113-.282.169-.508.169-.338 0-.62-.17-.846-.508-.226-.338-.226-.62 0-.845 5.531-5.64 8.297-12.294 8.297-19.963 0-3.158-.564-5.47-1.693-6.936-1.016 1.692-3.105 2.538-6.266 2.538z" fill="#AAA"/></svg>